<?xml version="1.0" encoding="utf-8"?>
<!-- Generator: Adobe Illustrator 27.8.1, SVG Export Plug-In . SVG Version: 6.00 Build 0)  -->
<svg version="1.1" id="圖層_1" xmlns="http://www.w3.org/2000/svg" xmlns:xlink="http://www.w3.org/1999/xlink" x="0px" y="0px"
	 viewBox="0 0 30 30" style="enable-background:new 0 0 30 30;" xml:space="preserve">
<style type="text/css">
	.st0{fill:none;stroke:#FFFFFF;stroke-width:0.6;stroke-miterlimit:10;}
	.st1{fill:#FFFFFF;}
</style>
<path class="st0" d="M3.7,20.8c-1-1.8-1.6-4-1.6-6.2C2,7.6,7.7,2,14.6,2s12.5,5.7,12.5,12.6"/>
<line class="st0" x1="3.4" y1="20.7" x2="9.6" y2="20.7"/>
<line class="st0" x1="9.3" y1="18.4" x2="9.3" y2="21"/>
<line class="st0" x1="14.9" y1="18.7" x2="9.2" y2="18.7"/>
<line class="st0" x1="14.6" y1="2" x2="14.6" y2="18.9"/>
<line class="st0" x1="2" y1="14.4" x2="27.4" y2="14.5"/>
<line class="st0" x1="20.5" y1="14.5" x2="20.5" y2="16.8"/>
<line class="st0" x1="14.4" y1="16.6" x2="20.7" y2="16.6"/>
<g>
	<path class="st1" d="M3,24.1v-0.4h3.4l0.1-0.1L6.9,24l-0.1,0.1c-0.6,0.5-1.1,0.9-1.5,1.1v0.5h2.3v0.5H5.3V28c0,0.2-0.1,0.4-0.4,0.4
		H4.2l-0.1-0.5h0.5c0.1,0,0.1,0,0.1-0.1v-1.6H2.3v-0.5h2.4v-1l0.4,0.1c0.3-0.2,0.6-0.4,0.9-0.7H3z"/>
	<path class="st1" d="M13.5,23.9v0.5H12v1.3h2.3v0.5H12v2.3h-0.5v-2.3H9v-0.5h2.4v-1.3h-0.9c-0.2,0.4-0.5,0.8-0.9,1.2l-0.4-0.5
		c0.6-0.4,1-1,1.2-1.9l0.6,0.1c0.1,0.1,0,0.1-0.1,0.1c0,0.1-0.1,0.3-0.2,0.5L13.5,23.9L13.5,23.9z"/>
	<path class="st1" d="M15.8,24.2h2.5v0.4h-2.5C15.8,24.7,15.8,24.2,15.8,24.2z M17.9,28.4h-0.5v-0.2h-1v0.3h-0.5v-1.9H18L17.9,28.4
		L17.9,28.4z M17.8,23.4v0.4h-1.6v-0.4H17.8z M16.2,25h1.6v0.4h-1.6V25z M17.8,25.8v0.4h-1.6v-0.4H17.8z M16.5,26.9v0.8h1v-0.8H16.5
		z M19.4,25.1v-1.9h0.4c0.1,0,0.2,0.1,0,0.2v1.7H21v0.4h-1.2v2.9h-0.5v-2.9h-1.2v-0.4L19.4,25.1L19.4,25.1z"/>
	<path class="st1" d="M27,25h-1.7v0.2H27v0.3h-1.7v0.2h2.5v0.4h-5.3v-0.4h2.4v-0.2h-1.7v-0.3h1.7V25h-1.6v-0.3h1.6v-0.3h-2.3v-0.3
		h2.3v-0.2h-1.6v-0.3h1.6v-0.4h0.4c0.1,0,0.1,0.1,0,0.1v0.2H27v0.5h0.7v0.3H27V25z M22.5,28h5.3v0.4h-5.3C22.5,28.4,22.5,28,22.5,28
		z M27,27.8h-3.7v-1.5H27V27.8z M24.8,26.9v-0.3h-1.1v0.3H24.8z M24.8,27.5v-0.3h-1.1v0.3H24.8z M26.5,24.2v-0.3h-1.2v0.3H26.5z
		 M26.5,24.7v-0.3h-1.2v0.3H26.5z M26.5,26.9v-0.3h-1.2v0.3H26.5z M26.5,27.5v-0.3h-1.2v0.3H26.5z"/>
</g>
</svg>
